<svg xmlns="http://www.w3.org/2000/svg" width="36.78mm" height="35.56mm" viewBox="0 0 104.27 100.79">
  <title>tool_icons</title>
  <g>
    <path d="M63.55,50l-0.89,2.69h0v0l5-.63c14.54-1.91,37.25-8.67,36.64-13.22l0-.32A1.14,1.14,0,0,0,103,37.47l-37,4.88-0.44,1.34Z" style="fill: #fff;stroke: #fff;stroke-miterlimit: 10"/>
    <path d="M0.1,51c1,7.71,9.08,13,18,11.87A17.88,17.88,0,0,0,27,59.1a11.79,11.79,0,0,1,5.88-2.48c1.62-.21,3.68-0.47,6-0.78,0.07-.21.13-0.44,0.21-0.65l1.75-5.34c0.51-1.55,1-3.12,1.52-4.63A18.74,18.74,0,0,1,28.89,39.6a17,17,0,0,0-14.47-4.7C5.52,36.08-.9,43.31.1,51ZM15.3,41.65c4.81-.64,9.14,2.1,9.68,6.09s-3,7.76-7.77,8.39S8.05,54,7.53,50a6.24,6.24,0,0,1,.31-2.9v0a7,7,0,0,1,.62-1.3l0-.05A9.37,9.37,0,0,1,15.3,41.65Z" style="fill: #fff;stroke: #fff;stroke-miterlimit: 10"/>
    <path d="M59.4,53.16l0.06-.2-0.1.2A0.06,0.06,0,0,1,59.4,53.16Z" style="fill: #fff;stroke: #fff;stroke-miterlimit: 10"/>
    <path d="M48.45,45.5c-1.2,3.67-2.54,7.73-3.79,11.52s-2.43,7.41-3.23,9.91a11.64,11.64,0,0,1-3.54,5.31,17.9,17.9,0,0,0-5.36,8.08,16.81,16.81,0,0,0,2.55,15.89c0.25,0.31.51,0.59,0.79,0.88a12.61,12.61,0,0,0,5,3.1c7.4,2.44,15.69-2.54,18.48-11.07A17,17,0,0,0,57.4,74a19.2,19.2,0,0,1-2.35-17.07l1.17-3.55L60,41.85,73.24,1.55a1,1,0,0,0-.2-1A0.24,0.24,0,0,0,73,.52,1.34,1.34,0,0,0,72.41.17l-0.31-.1C67.74-1.37,56.9,19.7,52.33,33.64,52.33,33.64,50.59,38.92,48.45,45.5Zm0.24,30.85a6.37,6.37,0,0,1,2.49,1.55c0.13,0.14.28,0.29,0.4,0.43A9.18,9.18,0,0,1,52.88,87c-1.52,4.61-5.86,7.33-9.69,6.08a6.35,6.35,0,0,1-2.49-1.57c-0.13-.14-0.27-0.28-0.4-0.43A9.16,9.16,0,0,1,39,82.43C40.52,77.82,44.86,75.09,48.69,76.35ZM55,46.84a2.11,2.11,0,0,1,.21.23A3.5,3.5,0,0,1,50,51.75l-0.21-.23A3.5,3.5,0,0,1,55,46.84Z" style="fill: #fff;stroke: #fff;stroke-miterlimit: 10"/>
  </g>
</svg>
