<svg xmlns="http://www.w3.org/2000/svg" width="440.11mm" height="198.35mm" viewBox="0 0 1247.57 562.24">
  <title>tool_icons</title>
  <g>
    <path d="M63.55,368.38l-0.89,2.69h0v0l5-.63c14.54-1.91,37.25-8.67,36.64-13.22l0-.32a1.14,1.14,0,0,0-1.21-1.09l-37,4.88-0.44,1.34Z" transform="translate(0 0.78)" style="fill: #231916"/>
    <path d="M0.1,369.39c1,7.71,9.08,13,18,11.87A17.88,17.88,0,0,0,27,377.48,11.79,11.79,0,0,1,32.89,375c1.62-.21,3.68-0.47,6-0.78,0.07-.21.13-0.44,0.21-0.65l1.75-5.34c0.51-1.55,1-3.12,1.52-4.63A18.74,18.74,0,0,1,28.89,358a17,17,0,0,0-14.47-4.7C5.52,354.46-.9,361.69.1,369.39ZM15.3,360c4.81-.64,9.14,2.1,9.68,6.09s-3,7.76-7.77,8.39-9.15-2.11-9.68-6.09a6.24,6.24,0,0,1,.31-2.9v0a7,7,0,0,1,.62-1.3l0-.05A9.37,9.37,0,0,1,15.3,360Z" transform="translate(0 0.78)" style="fill: #231916"/>
    <path d="M59.4,371.53l0.06-.2-0.1.2A0.06,0.06,0,0,1,59.4,371.53Z" transform="translate(0 0.78)" style="fill: #231916"/>
    <path d="M48.45,363.88c-1.2,3.67-2.54,7.73-3.79,11.52s-2.43,7.41-3.23,9.91a11.64,11.64,0,0,1-3.54,5.31,17.9,17.9,0,0,0-5.36,8.08,16.81,16.81,0,0,0,2.55,15.89c0.25,0.31.51,0.59,0.79,0.88a12.61,12.61,0,0,0,5,3.1c7.4,2.44,15.69-2.54,18.48-11.07a17,17,0,0,0-1.94-15.1,19.2,19.2,0,0,1-2.35-17.07l1.17-3.55L60,360.23l13.22-40.31a1,1,0,0,0-.2-1,0.24,0.24,0,0,0-.08-0.07,1.34,1.34,0,0,0-.55-0.34l-0.31-.1C67.74,317,56.9,338.08,52.33,352,52.33,352,50.59,357.3,48.45,363.88Zm0.24,30.85a6.37,6.37,0,0,1,2.49,1.55c0.13,0.14.28,0.29,0.4,0.43a9.18,9.18,0,0,1,1.3,8.66c-1.52,4.61-5.86,7.33-9.69,6.08a6.35,6.35,0,0,1-2.49-1.57c-0.13-.14-0.27-0.28-0.4-0.43A9.16,9.16,0,0,1,39,400.8C40.52,396.2,44.86,393.46,48.69,394.72ZM55,365.22a2.11,2.11,0,0,1,.21.23A3.5,3.5,0,0,1,50,370.13l-0.21-.23A3.5,3.5,0,0,1,55,365.22Z" transform="translate(0 0.78)" style="fill: #231916"/>
  </g>
  <g>
    <path d="M745.7,360.54a30.2,30.2,0,0,0,8.42,1.13,27.53,27.53,0,0,0,10.72-2,11.18,11.18,0,0,0,3.58-2.35,4.86,4.86,0,0,0,0-7.2,13.53,13.53,0,0,0-5.89-3.18,30.12,30.12,0,0,0-8.42-1.13,27.47,27.47,0,0,0-10.72,2,11.19,11.19,0,0,0-3.58,2.35,4.86,4.86,0,0,0,0,7.2A13.55,13.55,0,0,0,745.7,360.54Zm-3.43-8a10.37,10.37,0,0,1,4.4-2.28,26.79,26.79,0,0,1,7.45-1,24.17,24.17,0,0,1,9.35,1.67,7.9,7.9,0,0,1,2.5,1.59,1.5,1.5,0,0,1,0,2.44,10.37,10.37,0,0,1-4.4,2.28,26.84,26.84,0,0,1-7.45,1,24.22,24.22,0,0,1-9.35-1.67,7.9,7.9,0,0,1-2.5-1.59A1.5,1.5,0,0,1,742.27,352.54Z" transform="translate(0 0.78)" style="fill: #231916"/>
    <polygon points="716.42 345.66 716.43 345.66 716.43 345.65 716.42 345.66" style="fill: #231916"/>
    <path d="M816,401.59l-4.41-5.75,3.1-4a1.71,1.71,0,0,0,0-2.08l-3.1-4,3.09-4a1.71,1.71,0,0,0,0-2.09l-3.1-4,4.41-5.75a1.71,1.71,0,0,0-1.36-2.75H795.79V353.77a12.79,12.79,0,0,0-4-8.89c-3.56-3.65-8.88-6.32-15.34-8.26h0a80.44,80.44,0,0,0-22.35-3h0c-11,0-20.91,1.92-28.41,5.19a28.94,28.94,0,0,0-9.28,6.07,12.78,12.78,0,0,0-4,8.89v30.45a12.78,12.78,0,0,0,4,8.89h0c3.55,3.63,8.88,6.32,15.34,8.24a79.82,79.82,0,0,0,22.35,3h60.54A1.71,1.71,0,0,0,816,401.59Zm-95.91-53.14c2.56-2.67,7.18-5.16,13.11-6.91a75.24,75.24,0,0,1,20.89-2.79c10.36,0,19.73,1.87,26.36,4.75a24.08,24.08,0,0,1,7.64,4.94,6.85,6.85,0,0,1,0,10.64c-2.56,2.67-7.18,5.16-13.11,6.89a74.55,74.55,0,0,1-20.89,2.79c-10.36,0-19.73-1.85-26.36-4.75a23.79,23.79,0,0,1-7.64-4.92A6.85,6.85,0,0,1,720.11,348.45Zm70.55,12.94v7.37H777.6c1.49-.5,2.92-1,4.26-1.62a27.22,27.22,0,0,0,8.74-5.68ZM809,390.77l-3.9,5.08,2.58,3.37h-53.6c-10.36,0-19.73-1.85-26.36-4.75a23.52,23.52,0,0,1-7.64-4.94,7.67,7.67,0,0,1-2.53-5.3V361.39l0.07,0.07c3.23,3.32,8.31,5.93,14.6,7.8a78.1,78.1,0,0,0,21.87,2.92h53.6l-2.58,3.37,3.9,5.08-3.9,5.06Z" transform="translate(0 0.78)" style="fill: #231916"/>
  </g>
  <g>
    <path d="M221.74,503.68a30.52,30.52,0,0,1-1.3,18,21.77,21.77,0,0,1-11.16,11.7,22.72,22.72,0,0,1-4.7,1.55,28.81,28.81,0,0,1-17-2,21,21,0,0,1-3.11,5,35,35,0,0,0,21.36,2.64,28.44,28.44,0,0,0,5.89-1.94A27.54,27.54,0,0,0,225.79,524a36.36,36.36,0,0,0,1.62-21.48,45.47,45.47,0,0,0-4.61-12.33l-4.05,4.77A39.45,39.45,0,0,1,221.74,503.68Z" transform="translate(0 0.78)" style="fill: #231916"/>
    <path d="M164.82,475.29a27.87,27.87,0,0,0-7.07,13.36,38,38,0,0,0,0,16.2,47.75,47.75,0,0,0,8.06,17.86l0.08-.09a22.56,22.56,0,0,1,4.32-3.68,43,43,0,0,1-2.55-4.06,40.92,40.92,0,0,1-4.25-11.23,31.78,31.78,0,0,1-.06-13.7A21.91,21.91,0,0,1,169,479.33a5.78,5.78,0,0,1,2.8-1.76,2.88,2.88,0,0,1,1.51.08,4.18,4.18,0,0,1,1.33.75,10.37,10.37,0,0,1,2.43,3,27.31,27.31,0,0,1,2.41,5.75A11.53,11.53,0,0,0,184,493.6a8.82,8.82,0,0,0,6.68,1.28,9.16,9.16,0,0,0,5.93-4.29,11.32,11.32,0,0,0,1.16-8.3c0-.19-0.08-0.38-0.14-0.59v0c0-.18-0.09-0.37-0.13-0.55a8.41,8.41,0,0,1-.2-2.68,2.71,2.71,0,0,1,.68-1.7,2.45,2.45,0,0,1,1.26-.65,3.68,3.68,0,0,1,1.27,0,2.63,2.63,0,0,1,.82.22,39.69,39.69,0,0,1,7.26,5.13l4-4.14a45.42,45.42,0,0,0-8.53-6.07,8.33,8.33,0,0,0-2.87-.89,10,10,0,0,0-3.2.14,8.62,8.62,0,0,0-2.89,1.18,7.89,7.89,0,0,0-3.19,4.24,12.41,12.41,0,0,0-.12,6.47c0.06,0.26.12,0.53,0.2,0.82l0.07,0.34a5.56,5.56,0,0,1-.46,4.11,3.42,3.42,0,0,1-2.17,1.61,3,3,0,0,1-2.3-.46,5.79,5.79,0,0,1-2.18-3.33c-1.5-4.88-3.41-8.4-5.84-10.76a10.59,10.59,0,0,0-4.08-2.52,8.63,8.63,0,0,0-4.5-.24A11.42,11.42,0,0,0,164.82,475.29Z" transform="translate(0 0.78)" style="fill: #231916"/>
    <path d="M174.66,483.93a5.1,5.1,0,1,0,2.21,3.21A5.13,5.13,0,0,0,174.66,483.93Z" transform="translate(0 0.78)" style="fill: #231916"/>
    <path d="M195.41,522.37a4.4,4.4,0,1,0,3.89,4.86A4.4,4.4,0,0,0,195.41,522.37Z" transform="translate(0 0.78)" style="fill: #231916"/>
    <path d="M212.47,518.67a4.17,4.17,0,1,0,1.39,5.73A4.17,4.17,0,0,0,212.47,518.67Z" transform="translate(0 0.78)" style="fill: #231916"/>
    <path d="M176.4,504a4.86,4.86,0,1,0-3.05,6.16A4.86,4.86,0,0,0,176.4,504Z" transform="translate(0 0.78)" style="fill: #231916"/>
    <path d="M180.09,538.29c3.15-3.43,4.83-7.73,4.39-11.24l0-.15-6-5.5h-0.15c-3.53-.14-7.68,1.9-10.82,5.33a44,44,0,0,0-6.52,10,60.66,60.66,0,0,1-4,6.9,20.51,20.51,0,0,1-2,2.59l-0.72.67,0.58,0.32c2.72,1.47,7,1.39,11.87-.23A32.63,32.63,0,0,0,180.09,538.29Zm-6.45-.16c1.95-2.61.18-3.27-2-1.49-2.72,2.23-3.17.64-2.42-.54s2.61-2.84,1.78-3.77c-0.5-.56-1.67.4-3.47,1.71-1,.75-2.84.66-1.11-2.46a26.77,26.77,0,0,1,2.64-3.41,11.64,11.64,0,0,1,7.65-4l5.13,4.71a11.64,11.64,0,0,1-3.34,8,26.33,26.33,0,0,1-2.79,2.61l-0.47.32C173.41,541.13,171.69,540.74,173.64,538.13Z" transform="translate(0 0.78)" style="fill: #231916"/>
    <path d="M181.6,516.72a3.73,3.73,0,0,0,.91,3.52l2.76,2.54a3.73,3.73,0,0,0,3.59.61,8.46,8.46,0,0,0,4-2.69l5.13-6-8.55-7.85-5.53,5.62A8.45,8.45,0,0,0,181.6,516.72Z" transform="translate(0 0.78)" style="fill: #231916"/>
    <path d="M191.43,504.86l8.41,7.72,30.6-35.74c2.12-2.48,2.54-5.57.94-7l0,0c-1.59-1.46-4.64-.79-6.93,1.54Z" transform="translate(0 0.78)" style="fill: #231916"/>
  </g>
  <g>
    <path d="M236.86,325.3a7.47,7.47,0,0,0-10.51.05L219.71,332l10.44,10.44,6.65-6.65A7.47,7.47,0,0,0,236.86,325.3Z" transform="translate(0 0.78)" style="fill: #231916"/>
    <path d="M236.8,325.22l0.06,0.08,0.07,0.05Z" transform="translate(0 0.78)" style="fill: #231916"/>
    <path d="M158.12,390.5a3.49,3.49,0,0,0,0,4.93l8.6,8.6a3.48,3.48,0,0,0,4.93,0l22.66-22.66-13.53-13.53Z" transform="translate(0 0.78)" style="fill: #231916"/>
    <polygon points="151.12 409.99 147.98 413.13 149.79 414.94 152.94 411.8 166.4 407.39 155.53 396.52 151.12 409.99" style="fill: #231916"/>
    <path d="M183.19,365.43L196.72,379l33-33-13.53-13.53Zm36.24-22.71a3,3,0,0,1,0,4.23L203.37,363a3,3,0,0,1-4.23-4.23l16.07-16.07A3,3,0,0,1,219.43,342.72Z" transform="translate(0 0.78)" style="fill: #231916"/>
  </g>
  <g>
    <path d="M329.33,392.65l3.89-6.33L305,369l-3.9,6.33a25.06,25.06,0,0,1-1.81,22.27l5.46,3.36,5.46,3.36A25.06,25.06,0,0,1,329.33,392.65Z" transform="translate(0 0.78)" style="fill: #231916"/>
    <path d="M362.54,338.69a3.84,3.84,0,0,0-1.26-5.27L339.63,320.1a3.82,3.82,0,0,0-5.27,1.25l-27.9,45.33L334.64,384Zm-47.81,26,23.61-38.36,17.94,11-23.61,38.36Z" transform="translate(0 0.78)" style="fill: #231916"/>
    <polygon points="295.36 409.76 304.81 409.76 307.25 405.8 300.06 401.38 295.36 409.76" style="fill: #231916"/>
    <path d="M379.54,408.21H312.8a1.29,1.29,0,0,0-1.29,1.29V412a1.29,1.29,0,0,0,1.29,1.29h66.74a1.29,1.29,0,0,0,1.29-1.29V409.5A1.29,1.29,0,0,0,379.54,408.21Z" transform="translate(0 0.78)" style="fill: #231916"/>
  </g>
  <g>
    <path d="M602.08,347.18c-2.63,2.63-3.9,8.29-1.19,14.56,2.88,6.66,1.27,9.7-1,12.28s-21.1,18.77-24.83,22.5a9.57,9.57,0,1,0,13.53,13.53c3.74-3.74,19.91-22.13,22.5-24.83,2.4-2.5,5.63-3.92,12.28-1,6.27,2.71,11.93,1.43,14.56-1.2l3.58-3.58-35.8-35.8Zm-17.8,58.62a3.55,3.55,0,1,1,0-5A3.56,3.56,0,0,1,584.29,405.8Z" transform="translate(0 0.78)" style="fill: #231916"/>
    <path d="M663.29,348.72l-16.46-16.46a1.91,1.91,0,0,0-2.35-.28L636,337.16l5.06-8.67a1.91,1.91,0,0,0-.3-2.32l-4.63-4.63a6.38,6.38,0,0,0-9.57.63l-16.1,21,31.26,31.26,21-16.1A6.38,6.38,0,0,0,663.29,348.72Z" transform="translate(0 0.78)" style="fill: #231916"/>
  </g>
  <g>
    <path d="M949.63,338.3l-26.31,12.28a11.6,11.6,0,0,0-1.56-1.92,14.48,14.48,0,0,0-1.22-1.08l-0.22-.16L932.38,321l-5.81-3.83-0.55.72L918,328.4c-4.18,5.42-8.65,11.24-9.84,12.8-3.43,4.51-5.31,7.58-6.3,10.18a14.36,14.36,0,0,0-.57,1.86h-0.48l-2.68-.06-1.25,0h-1c-1.71,0-3.36.07-5,.15a49.16,49.16,0,0,0-8.59,1,36,36,0,0,0-6.69,2.2,44.73,44.73,0,0,0-5.23,2.73,75.7,75.7,0,0,0-8.59,6.15c-3.09,2.52-6.46,5.53-10.26,9.17l-0.71.68,7.91,8.27,0.7-.68c6.58-6.3,11.58-10.4,15.59-13a38.13,38.13,0,0,1,4.15-2.37,25.18,25.18,0,0,1,6.2-2.1h0a36.57,36.57,0,0,1,4.91-.6c2.69-.17,5.82-0.18,9.61-0.28h0.25l2,0h1.19a12.5,12.5,0,0,0,1.28,1.51,12.36,12.36,0,0,0,2.68,2c0,1,0,2.34-.06,3.64,0,1.57,0,3.1,0,4,0,1.7-.07,3.25-0.13,4.68-0.06,1.25-.14,2.41-0.27,3.5a26.91,26.91,0,0,1-1.13,5.39,27.58,27.58,0,0,1-1.79,4.21,52.52,52.52,0,0,1-5.29,7.95c-2.42,3.09-5.58,6.68-9.64,10.93l-0.68.7,8.27,7.91,0.68-.7c6.57-6.87,11.11-12.32,14.33-17.27a49.55,49.55,0,0,0,3.07-5.39h0a36.71,36.71,0,0,0,3-8.94h0a47.63,47.63,0,0,0,.8-6.44c0.2-3.2.2-6.4,0.3-10,0-.19,0-0.51,0-0.9,0-.59,0-1.34,0-2,0-.3,0-0.58,0-0.83a37.56,37.56,0,0,0,4.78-2.15,46.65,46.65,0,0,0,5.95-3.76c0.79-.59,2.64-2,5-3.79,7-5.36,18.3-14.1,18.3-14.1l0.72-.55ZM918,366.65l-0.55.19h0l-0.39.13v0a10.23,10.23,0,0,1-5.63.54,10.34,10.34,0,0,1-5.44-2.87,10.21,10.21,0,0,1-3-6.46l-0.12-1.47,0,0a13,13,0,0,1,0-1.58,10.85,10.85,0,0,1,.45-2.27,19.81,19.81,0,0,1,2-4.29,67.72,67.72,0,0,1,4.31-6.23c1.18-1.55,5.65-7.37,9.83-12.79l5.59-7.26L926.9,320l0.12-.15,2.89,1.91-12.06,26.39,0.75,0.45a7.37,7.37,0,0,1,.75.53,11.09,11.09,0,0,1,1,.92,8.85,8.85,0,0,1,1.66,2.24l0.1,0.19h0a10.56,10.56,0,0,1-1.83,12.46A10.67,10.67,0,0,1,918,366.65Zm32.65-22.87-11.62,9-6.65,5.12c-1.92,1.48-3.42,2.62-4.1,3.13a44.6,44.6,0,0,1-5.69,3.6l-0.3.15a11.94,11.94,0,0,0,1.4-12.2l25.21-11.77,1.91,2.89Z" transform="translate(0 0.78)" style="fill: #231916"/>
    <path d="M909.75,353.85a5,5,0,1,0,7.08,0A5,5,0,0,0,909.75,353.85Zm6.29,6.29a3.89,3.89,0,1,1,1.14-2.75A3.88,3.88,0,0,1,916,360.15Z" transform="translate(0 0.78)" style="fill: #231916;stroke: #231916;stroke-miterlimit: 10"/>
  </g>
  <path d="M353.56,468.2l-64.72,64.72,24,24,64.72-64.72Zm-57.32,64.72,7.62-7.62,8.57,8.57,3.24-3.24-8.57-8.57,6.48-6.48,4.94,4.94,3.24-3.24-4.94-4.94,6.47-6.47,8.57,8.57,3.24-3.24-8.57-8.57,6.48-6.48,4.94,4.94,3.24-3.24-4.94-4.94,6.47-6.47,8.57,8.57,3.24-3.24-8.57-8.57,7.62-7.62,16.64,16.65-57.32,57.33Z" transform="translate(0 0.78)" style="fill: #231916"/>
  <path d="M1071.83,341.91L1060.89,331a5.31,5.31,0,0,0-3.76-1.56H1015.7a5.31,5.31,0,0,0-5.31,5.31v17.5h5.18v10.89h-5.18v40.14a5.31,5.31,0,0,0,5.31,5.31h52.37a5.31,5.31,0,0,0,5.31-5.31V345.67A5.31,5.31,0,0,0,1071.83,341.91Zm-7.18,58H1019V347h45.62v52.88Z" transform="translate(0 0.78)" style="fill: #231916"/>
  <path d="M76.13,501.52l11.22-11.57a4.49,4.49,0,0,0,1.28-2.74,3.14,3.14,0,0,0-.9-2.51c-1.33-1.29-3.68-1-5.23.55L71.28,496.82,61,486.87,72.24,475.3a4.49,4.49,0,0,0,1.28-2.74,3.12,3.12,0,0,0-.89-2.51c-1.34-1.3-3.69-1.06-5.24.55L56.17,482.17l-10.12-9.81L27,492.06c-8,8.24-11.05,19.17-8.84,28.29l-2.88,3c-3.06,3.16-3.41,7.79-.76,10.36l2.22,2.16-7.37,7.6,7,6.78,7.37-7.6,2.23,2.16c2.64,2.56,7.27,2.08,10.33-1.08l2.88-3c9.18,1.93,20-1.47,28-9.72l19.1-19.7ZM63.72,527.7c-6.84,7.07-16.25,9.73-24,7.57l-1.53-.44-5.39,5.56a2.12,2.12,0,0,1-3,.31L18.44,529.61a2.11,2.11,0,0,1,.22-3L24,521.09l-0.48-1.52c-2.4-7.64,0-17.13,6.82-24.19l5.56-5.73L69.28,522l-5.56,5.73h0Zm8.53-8.8L38.91,486.58l6.6-6.81,6.71,6.51L57,490.94l10.29,10,4.81,4.67,6.7,6.5Z" transform="translate(0 0.78)" style="fill: #231916"/>
  <g>
    <path d="M473.66,525.05a6.67,6.67,0,1,0,6.67,6.67A6.67,6.67,0,0,0,473.66,525.05Z" transform="translate(0 0.78)" style="fill: #231916"/>
    <path d="M512.85,528l-6.71-1.7a5.19,5.19,0,0,0-6.3,3.76l-0.11.44-3.49-.88c0.34-1.33.63-2.5,0.83-3.38,0.53-2.3.93-5.58,2.79-6.82,13.34-7.75,6.82-24.81,3.41-33.19s-9.93-11.17-13-11.17H477.54v-5.8a1.64,1.64,0,0,0-1.64-1.64h-4.48a1.64,1.64,0,0,0-1.64,1.64v5.8H457.07c-3.1,0-9.62,2.79-13,11.17s-9.92,25.43,3.41,33.19c1.86,1.24,2.26,4.52,2.79,6.82,0.93,4,3.72,14.27,5,18,0.81,2.43,5.43,8.07,18.46,8.07s17.65-5.64,18.46-8.07c0.16-.48.35-1.08,0.55-1.76l3.79,1L496.06,545a5.19,5.19,0,0,0,3.76,6.3l6.71,1.7a5.19,5.19,0,0,0,6.3-3.76l3.77-14.93A5.19,5.19,0,0,0,512.85,528Zm-27.71-42.11c6.65-2,13,2.82,15.14,11.2,2.08,8,0,15.61-6.63,17.57S480.83,512.9,479.18,503C477.63,493.72,478.49,487.9,485.14,485.94Zm-31.47,28.77c-6.65-2-8.71-9.55-6.63-17.57,2.17-8.38,8.49-13.17,15.14-11.2s7.5,7.79,6,17.09C466.49,512.9,460.32,516.68,453.67,514.71Zm20,30.19a13.18,13.18,0,1,1,13.18-13.18A13.18,13.18,0,0,1,473.66,544.9Z" transform="translate(0 0.78)" style="fill: #231916"/>
  </g>
  <g>
    <path d="M617.68,513.74a11.61,11.61,0,1,0-11.61-11.61A11.61,11.61,0,0,0,617.68,513.74Z" transform="translate(0 0.78)" style="fill: #231916"/>
    <path d="M632.44,547.63c-3.56,0-8.39-3.76-9.57-7.49a37.42,37.42,0,0,1-10.38,0c-1.18,3.73-6,7.49-9.57,7.49-4.28,0-4.13,5.9-.35,5.9h30.2C636.57,553.53,636.72,547.63,632.44,547.63Z" transform="translate(0 0.78)" style="fill: #231916"/>
    <path d="M617.68,466.72a35.41,35.41,0,1,0,35.41,35.41A35.41,35.41,0,0,0,617.68,466.72Zm0,18.69A16.72,16.72,0,1,1,601,502.13,16.72,16.72,0,0,1,617.68,485.41Zm14.61-.56A2.81,2.81,0,1,1,635.1,482,2.81,2.81,0,0,1,632.29,484.85Z" transform="translate(0 0.78)" style="fill: #231916"/>
  </g>
  <g>
    <path d="M746.76,515.13l-3.55,4.37a1.82,1.82,0,0,0,.26,2.55l2.82,2.29,5.84-7.19-2.82-2.29A1.81,1.81,0,0,0,746.76,515.13Z" transform="translate(0 0.78)" style="fill: #231916"/>
    <polygon points="728.1 492.26 739.37 498.6 759.44 473.89 750.93 464.16 728.1 492.26" style="fill: #231916"/>
    <path d="M801.56,508.76a19.31,19.31,0,0,0-2.53-7.58L775,530.82a19.27,19.27,0,0,0,21.11-6.12l1.3-1.6A19.3,19.3,0,0,0,801.56,508.76Z" transform="translate(0 0.78)" style="fill: #231916"/>
    <path d="M762.64,475.39l-20.38,25.1,15,15.26-17.85,22A8.06,8.06,0,1,0,752,547.89l16.72-20.59a19.24,19.24,0,0,0,2.21,1.6l25.44-31.32a19.57,19.57,0,0,0-2.06-1.87Z" transform="translate(0 0.78)" style="fill: #231916"/>
  </g>
  <path d="M939.51,479.71l7-2.05L930.92,462l-52.53,52.53-3.56,3.56-11.46,11.46a7.37,7.37,0,0,0,0,10.43l19.31,19.31a7.37,7.37,0,0,0,10.43,0l15-15-1.93-1.93,6.69-2.07-3-6.11,8-3-3-6.11,8-3-3-6.11,8-3-3-6.1,8-3-3-6.11,8-3-3-6.1,8-3Zm-53,71.69a0.67,0.67,0,0,1-.92.12l-14.05-14.05a0.67,0.67,0,0,1,.12-0.92l8.86-8.86,14.85,14.85ZM938.42,476l-4.46,1.3,2.06,4.17,1.1,2.23-3.91,1.46-4,1.51,1.91,3.87,1.1,2.23-3.91,1.46-4,1.51,1.91,3.87,1.1,2.24-3.92,1.46-4,1.51,1.92,3.87,1.1,2.23-3.91,1.46-4,1.51,1.91,3.87,1.1,2.24-3.91,1.46-4,1.51,1.91,3.87,1.1,2.23-3.92,1.46-4,1.51,1.91,3.87,1,2-2.86.89-1.43.44-21.93-21.93,49.77-49.77,8.21,8.21Z" transform="translate(0 0.78)" style="fill: #231916"/>
  <g>
    <path d="M1010.25,500.92c7.54,3.3,18.18,5.4,30,5.4a84.71,84.71,0,0,0,23.74-3.17c6.74-2,12-4.8,14.9-7.83,2-2,2.88-4,2.88-6s-0.91-4-2.88-6a27.35,27.35,0,0,0-8.68-5.61c-7.54-3.28-18.19-5.4-30-5.4a85.5,85.5,0,0,0-23.74,3.17c-6.74,2-12,4.82-14.9,7.85-2,2-2.87,4-2.87,6s0.91,4,2.87,6A27,27,0,0,0,1010.25,500.92Zm16.5-13a11.79,11.79,0,0,1,5-2.59,30.45,30.45,0,0,1,8.47-1.12,27.47,27.47,0,0,1,10.62,1.9,9,9,0,0,1,2.84,1.81,1.7,1.7,0,0,1,0,2.78,11.79,11.79,0,0,1-5,2.59,30.49,30.49,0,0,1-8.46,1.12,27.51,27.51,0,0,1-10.62-1.9,9,9,0,0,1-2.84-1.81A1.7,1.7,0,0,1,1026.75,487.88Z" transform="translate(0 0.78)" style="fill: #231916"/>
    <path d="M1066.88,508.26h14.84v-8.37l-0.08.08a31,31,0,0,1-9.93,6.45C1070.21,507.08,1068.58,507.7,1066.88,508.26Z" transform="translate(0 0.78)" style="fill: #231916"/>
    <path d="M1098.18,528.66l4.43-5.75-4.43-5.77,2.94-3.83h-60.91a88.72,88.72,0,0,1-24.85-3.32c-7.15-2.12-12.92-5.09-16.59-8.86l-0.08-.08V527a8.72,8.72,0,0,0,2.87,6,26.74,26.74,0,0,0,8.69,5.61c7.54,3.3,18.18,5.4,30,5.4h60.91l-2.94-3.83,4.43-5.77Z" transform="translate(0 0.78)" style="fill: #231916"/>
  </g>
  <path d="M509.34,325l4.95,2.27a1.39,1.39,0,0,1,.69,1.84L478.68,408.4a8.38,8.38,0,0,1-11.1,4.13l-30.51-14-0.27-2.52,1.07-2.35,2.16-1.56,27.41,12.92a3.13,3.13,0,0,0,4.18-1.52l35.87-77.85A1.39,1.39,0,0,1,509.34,325Z" transform="translate(0 0.78)" style="fill: #231916"/>
  <path d="M1048,9L983.23,73.73l24,24L1072,33ZM990.63,73.73l7.62-7.62,8.57,8.57,3.24-3.24-8.57-8.57,6.48-6.48,4.94,4.94,3.24-3.24-4.94-4.94,6.47-6.47,8.57,8.57,3.24-3.24-8.57-8.57,6.48-6.48,4.94,4.94,3.24-3.24-4.94-4.94,6.47-6.47,8.57,8.57,3.24-3.24L1040.34,24,1048,16.4,1064.6,33l-57.32,57.33Z" transform="translate(0 0.78)" style="fill: #fff;stroke: #fff;stroke-miterlimit: 10"/>
  <g>
    <path d="M842.7,59l-0.89,2.69h0v0l5-.63c14.54-1.91,37.25-8.67,36.64-13.22l0-.32a1.14,1.14,0,0,0-1.21-1.09l-37,4.88-0.44,1.34Z" transform="translate(0 0.78)" style="fill: #fff;stroke: #fff;stroke-miterlimit: 10"/>
    <path d="M779.26,60c1,7.71,9.08,13,18,11.87a17.88,17.88,0,0,0,8.92-3.78A11.79,11.79,0,0,1,812,65.62c1.62-.21,3.68-0.47,6-0.78,0.07-.21.13-0.44,0.21-0.65L820,58.85c0.51-1.55,1-3.12,1.52-4.63A18.74,18.74,0,0,1,808,48.61a17,17,0,0,0-14.47-4.7C784.67,45.08,778.26,52.32,779.26,60Zm15.19-9.36c4.81-.64,9.14,2.1,9.68,6.09s-3,7.76-7.77,8.39S787.21,63,786.68,59a6.24,6.24,0,0,1,.31-2.9v0a7,7,0,0,1,.62-1.3l0-.05A9.37,9.37,0,0,1,794.46,50.65Z" transform="translate(0 0.78)" style="fill: #fff;stroke: #fff;stroke-miterlimit: 10"/>
    <path d="M838.56,62.16l0.06-.2-0.1.2A0.06,0.06,0,0,1,838.56,62.16Z" transform="translate(0 0.78)" style="fill: #fff;stroke: #fff;stroke-miterlimit: 10"/>
    <path d="M827.6,54.5c-1.2,3.67-2.54,7.73-3.79,11.52s-2.43,7.41-3.23,9.91a11.64,11.64,0,0,1-3.54,5.31,17.9,17.9,0,0,0-5.36,8.08,16.81,16.81,0,0,0,2.55,15.89c0.25,0.31.51,0.59,0.79,0.88a12.61,12.61,0,0,0,5,3.1c7.4,2.44,15.69-2.54,18.48-11.07A17,17,0,0,0,836.56,83a19.2,19.2,0,0,1-2.35-17.07l1.17-3.55,3.8-11.53L852.4,10.55a1,1,0,0,0-.2-1,0.24,0.24,0,0,0-.08-0.07,1.34,1.34,0,0,0-.55-0.34l-0.31-.1c-4.35-1.44-15.19,19.63-19.77,33.57C831.49,42.64,829.75,47.93,827.6,54.5Zm0.24,30.85a6.37,6.37,0,0,1,2.49,1.55c0.13,0.14.28,0.29,0.4,0.43A9.18,9.18,0,0,1,832,96c-1.52,4.61-5.86,7.33-9.69,6.08a6.35,6.35,0,0,1-2.49-1.57c-0.13-.14-0.27-0.28-0.4-0.43a9.16,9.16,0,0,1-1.31-8.64C819.68,86.82,824,84.09,827.85,85.35Zm6.28-29.5a2.11,2.11,0,0,1,.21.23,3.5,3.5,0,0,1-5.19,4.68l-0.21-.23A3.5,3.5,0,0,1,834.13,55.85Z" transform="translate(0 0.78)" style="fill: #fff;stroke: #fff;stroke-miterlimit: 10"/>
  </g>
  <g>
    <path d="M571.58,44.88A30.2,30.2,0,0,0,580,46a27.53,27.53,0,0,0,10.72-2,11.18,11.18,0,0,0,3.58-2.35,4.86,4.86,0,0,0,0-7.2,13.53,13.53,0,0,0-5.89-3.18A30.12,30.12,0,0,0,580,30.19a27.47,27.47,0,0,0-10.72,2,11.19,11.19,0,0,0-3.58,2.35,4.86,4.86,0,0,0,0,7.2A13.55,13.55,0,0,0,571.58,44.88Zm-3.43-8a10.37,10.37,0,0,1,4.4-2.28,26.79,26.79,0,0,1,7.45-1,24.17,24.17,0,0,1,9.35,1.67,7.9,7.9,0,0,1,2.5,1.59,1.5,1.5,0,0,1,0,2.44,10.37,10.37,0,0,1-4.4,2.28,26.84,26.84,0,0,1-7.45,1,24.22,24.22,0,0,1-9.35-1.67,7.9,7.9,0,0,1-2.5-1.59A1.5,1.5,0,0,1,568.15,36.88Z" transform="translate(0 0.78)" style="fill: #fff;stroke: #fff;stroke-miterlimit: 10"/>
    <polygon points="542.3 30 542.3 30 542.31 29.99 542.3 30" style="fill: #fff;stroke: #fff;stroke-miterlimit: 10"/>
    <path d="M641.9,85.93l-4.41-5.75,3.1-4a1.71,1.71,0,0,0,0-2.08l-3.1-4,3.09-4a1.71,1.71,0,0,0,0-2.09l-3.1-4,4.41-5.75a1.71,1.71,0,0,0-1.36-2.75H621.67V38.11a12.79,12.79,0,0,0-4-8.89c-3.56-3.65-8.88-6.32-15.34-8.26h0A80.44,80.44,0,0,0,580,18h0c-11,0-20.91,1.92-28.41,5.19a28.94,28.94,0,0,0-9.28,6.07,12.78,12.78,0,0,0-4,8.89V68.56a12.78,12.78,0,0,0,4,8.89h0c3.55,3.63,8.88,6.32,15.34,8.24a79.82,79.82,0,0,0,22.35,3h60.54A1.71,1.71,0,0,0,641.9,85.93ZM546,32.79c2.56-2.67,7.18-5.16,13.11-6.91A75.24,75.24,0,0,1,580,23.09c10.36,0,19.73,1.87,26.36,4.75A24.08,24.08,0,0,1,614,32.79a7.71,7.71,0,0,1,2.53,5.32A7.71,7.71,0,0,1,614,43.42c-2.56,2.67-7.18,5.16-13.11,6.89A74.55,74.55,0,0,1,580,53.1c-10.36,0-19.73-1.85-26.36-4.75A23.79,23.79,0,0,1,546,43.42a7.71,7.71,0,0,1-2.53-5.32A7.71,7.71,0,0,1,546,32.79Zm70.55,12.94V53.1H603.48c1.49-.5,2.92-1,4.26-1.62a27.22,27.22,0,0,0,8.74-5.68ZM634.92,75.1L631,80.18l2.58,3.37H580c-10.36,0-19.73-1.85-26.36-4.75A23.52,23.52,0,0,1,546,73.86a7.67,7.67,0,0,1-2.53-5.3V45.73l0.07,0.07c3.23,3.32,8.31,5.93,14.6,7.8A78.1,78.1,0,0,0,580,56.52h53.6L631,59.89l3.9,5.08L631,70Z" transform="translate(0 0.78)" style="fill: #fff;stroke: #fff;stroke-miterlimit: 10"/>
  </g>
  <g>
    <path d="M1192.15,51.75l-3.55,4.37a1.82,1.82,0,0,0,.26,2.55l2.82,2.29,5.84-7.19-2.82-2.29A1.81,1.81,0,0,0,1192.15,51.75Z" transform="translate(0 0.78)" style="fill: #fff;stroke: #fff;stroke-miterlimit: 10"/>
    <polygon points="1173.48 28.88 1184.76 35.22 1204.82 10.51 1196.31 0.78 1173.48 28.88" style="fill: #fff;stroke: #fff;stroke-miterlimit: 10"/>
    <path d="M1246.94,45.37a19.31,19.31,0,0,0-2.53-7.58l-24.08,29.64a19.27,19.27,0,0,0,21.11-6.12l1.3-1.6A19.3,19.3,0,0,0,1246.94,45.37Z" transform="translate(0 0.78)" style="fill: #fff;stroke: #fff;stroke-miterlimit: 10"/>
    <path d="M1208,12l-20.38,25.1,15,15.26-17.85,22a8.06,8.06,0,1,0,12.51,10.16l16.72-20.59a19.24,19.24,0,0,0,2.21,1.6l25.44-31.32a19.57,19.57,0,0,0-2.06-1.87Z" transform="translate(0 0.78)" style="fill: #fff;stroke: #fff;stroke-miterlimit: 10"/>
  </g>
</svg>
